<svg width="512" height="512" viewBox="0 0 512 512" fill="none" xmlns="http://www.w3.org/2000/svg">
  <rect width="512" height="512" rx="112" fill="#F3F5F1" />
  <path
    d="M112 278C105 216 148 164 221 147C293 131 385 156 407 223C429 291 363 356 270 368C179 380 120 343 112 278Z"
    fill="#607A65" />
  <path
    d="M154 245C168 205 216 181 269 178C322 175 367 194 384 229C355 206 309 195 260 200C211 205 174 221 154 245Z"
    fill="#8FA593"
    fill-opacity="0.56" />
  <path
    d="M147 296C181 334 252 347 316 327C353 316 379 296 392 272C384 317 334 350 267 357C207 363 161 341 147 296Z"
    fill="#425F48"
    fill-opacity="0.34" />
</svg>
