<svg xmlns="http://www.w3.org/2000/svg" viewBox="0 0 64 64" role="img" aria-labelledby="title">
  <title id="title">Homeping</title>
  <rect width="64" height="64" rx="16" fill="#ffffff" />
  <path d="M13.5 32 32 15.75 50.5 32" fill="none" stroke="#174f3e" stroke-width="5.25" stroke-linecap="round" stroke-linejoin="round" />
  <path d="M18.75 30.75 32 19.5l13.25 11.25v17.5A3.75 3.75 0 0 1 41.5 52h-19a3.75 3.75 0 0 1-3.75-3.75z" fill="#1f6f54" />
  <path d="M26.75 52V39.75a2.25 2.25 0 0 1 2.25-2.25h6a2.25 2.25 0 0 1 2.25 2.25V52z" fill="#ffffff" />
  <path d="M22.5 31.5 32 23.5l9.5 8v2.25h-19z" fill="#2a8064" />
  <circle cx="47" cy="17" r="9" fill="#fff7f3" stroke="#ffffff" stroke-width="2.5" />
  <circle cx="47" cy="17" r="4.25" fill="#9f422b" />
  <path d="M47 9.75A7.25 7.25 0 0 1 54.25 17" fill="none" stroke="#365c8f" stroke-width="2.5" stroke-linecap="round" />
  <path d="M47 5.25A11.75 11.75 0 0 1 58.75 17" fill="none" stroke="#365c8f" stroke-width="2.5" stroke-linecap="round" opacity=".72" />
</svg>
