<svg xmlns="http://www.w3.org/2000/svg" viewBox="0 0 64 64" role="img" aria-labelledby="title">
  <title id="title">Homeping</title>
  <rect width="64" height="64" rx="14" fill="#f5f6f2" />
  <path d="M13 31.5 32 15l19 16.5v19A3.5 3.5 0 0 1 47.5 54h-31A3.5 3.5 0 0 1 13 50.5z" fill="#1f6f54" />
  <path d="M20 30.5 32 20l12 10.5V47a2 2 0 0 1-2 2h-5V38H27v11h-5a2 2 0 0 1-2-2z" fill="#ffffff" />
  <path d="M10 32 32 12l22 20" fill="none" stroke="#174f3e" stroke-width="5" stroke-linecap="round" stroke-linejoin="round" />
  <circle cx="46" cy="17" r="5" fill="#9f422b" />
  <path d="M46 7c5.5 0 10 4.5 10 10" fill="none" stroke="#365c8f" stroke-width="3.5" stroke-linecap="round" />
  <path d="M46 1c8.8 0 16 7.2 16 16" fill="none" stroke="#365c8f" stroke-width="3.5" stroke-linecap="round" opacity=".72" />
</svg>
