<svg xmlns="http://www.w3.org/2000/svg" viewBox="0 0 512 512">
  <rect width="512" height="512" rx="96" fill="#dfe9df"/>
  <path d="M116 72H396L430 384H82Z" fill="#fffdf4" stroke="#233022" stroke-width="18" stroke-linejoin="round"/>
  <path d="M82 384H430L472 464H40Z" fill="#d7b261" stroke="#233022" stroke-width="18" stroke-linejoin="round"/>
  <path d="M128 190H384M140 282H372M256 384V464" fill="none" stroke="#d54a35" stroke-width="20" stroke-linecap="round"/>
  <circle cx="310" cy="160" r="24" fill="#b7f25a" stroke="#233022" stroke-width="12"/>
  <path d="M204 268Q238 230 276 270L288 324Q238 354 188 324Z" fill="#b7f25a" stroke="#233022" stroke-width="14" stroke-linejoin="round"/>
  <circle cx="232" cy="196" r="38" fill="#c28c6a" stroke="#233022" stroke-width="14"/>
  <path d="M198 198Q214 156 252 158Q278 160 292 196Q250 180 198 198Z" fill="#233022"/>
  <path d="M197 304L150 362M278 304L334 362" fill="none" stroke="#233022" stroke-width="22" stroke-linecap="round"/>
  <path d="M196 272L150 308M276 270L334 226" fill="none" stroke="#233022" stroke-width="20" stroke-linecap="round"/>
  <path d="M334 226L356 204" fill="none" stroke="#233022" stroke-width="14" stroke-linecap="round"/>
  <ellipse cx="374" cy="182" rx="26" ry="44" transform="rotate(24 374 182)" fill="#fffdf4" stroke="#233022" stroke-width="12"/>
</svg>
