<svg xmlns="http://www.w3.org/2000/svg" viewBox="0 0 540 960">
  <defs>
    <linearGradient id="bgGlass" x1="0" y1="0" x2="0" y2="1">
      <stop offset="0" stop-color="#e9f5f5"/>
      <stop offset=".5" stop-color="#cbdedc"/>
      <stop offset="1" stop-color="#aabfbc"/>
    </linearGradient>
    <linearGradient id="wallGlass" x1="0" y1="74" x2="0" y2="558" gradientUnits="userSpaceOnUse">
      <stop offset="0" stop-color="#fcfffb"/>
      <stop offset=".5" stop-color="#eef6ef"/>
      <stop offset="1" stop-color="#d8e0d3"/>
    </linearGradient>
    <linearGradient id="sideGlassLeft" x1="0" y1="0" x2="1" y2="0">
      <stop offset="0" stop-color="#86aaa9" stop-opacity=".58"/>
      <stop offset=".72" stop-color="#edf8f4" stop-opacity=".72"/>
      <stop offset="1" stop-color="#fff" stop-opacity=".86"/>
    </linearGradient>
    <linearGradient id="sideGlassRight" x1="0" y1="0" x2="1" y2="0">
      <stop offset="0" stop-color="#fff" stop-opacity=".86"/>
      <stop offset=".28" stop-color="#edf8f4" stop-opacity=".72"/>
      <stop offset="1" stop-color="#86aaa9" stop-opacity=".58"/>
    </linearGradient>
    <linearGradient id="floorGlass" x1="0" y1="556" x2="0" y2="918" gradientUnits="userSpaceOnUse">
      <stop offset="0" stop-color="#efd99f"/>
      <stop offset=".45" stop-color="#d7b261"/>
      <stop offset="1" stop-color="#b47d39"/>
    </linearGradient>
    <filter id="glowGlass" x="-80%" y="-80%" width="260%" height="260%">
      <feGaussianBlur stdDeviation="8" result="blur"/>
      <feMerge><feMergeNode in="blur"/><feMergeNode in="SourceGraphic"/></feMerge>
    </filter>
  </defs>
  <rect width="540" height="960" fill="url(#bgGlass)"/>
  <path d="M0 0H540V124L446 46H94L0 124Z" fill="#dfecea"/>
  <g fill="#ffffff" filter="url(#glowGlass)">
    <rect x="140" y="14" width="260" height="8" rx="4" opacity=".42"/>
    <rect x="210" y="56" width="120" height="8" rx="4"/>
  </g>
  <path d="M0 124L94 46L122 558L20 918L0 944Z" fill="url(#sideGlassLeft)"/>
  <path d="M446 46L540 124V944L520 918L418 558Z" fill="url(#sideGlassRight)"/>
  <path id="frontWall" d="M130 76H410L418 558H122Z" fill="url(#wallGlass)"/>
  <path id="floor" d="M122 558H418L520 918H20Z" fill="url(#floorGlass)"/>
  <g fill="none" stroke-linecap="round" stroke-linejoin="round">
    <path d="M94 46L122 558L20 918M446 46L418 558L520 918" stroke="#3c6461" stroke-opacity=".72" stroke-width="3.4"/>
    <path d="M130 76H410L418 558H122Z" stroke="#42635e" stroke-opacity=".7" stroke-width="2.2"/>
    <path d="M122 558H418L520 918H20Z" stroke="#42635e" stroke-opacity=".7" stroke-width="2.2"/>
    <path d="M0 146L130 220H410L540 146" stroke="#a7191e" stroke-width="5"/>
    <path d="M126 404H414" stroke="#a7191e" stroke-width="4"/>
    <path d="M124 488H416" stroke="#a7191e" stroke-width="5"/>
    <path d="M122 524H418" stroke="#7a3028" stroke-opacity=".48" stroke-width="2"/>
  </g>
  <g fill="none" stroke="#f7ffff" stroke-opacity=".36" stroke-width="2">
    <path d="M26 108L98 558L28 916"/>
    <path d="M514 108L442 558L512 916"/>
    <path d="M16 372L112 432M524 372L428 432"/>
    <path d="M16 550L122 558M524 550L418 558"/>
  </g>
  <g opacity=".42">
    <path d="M140 558L54 918M164 558L95 918M188 558L136 918M212 558L177 918M236 558L218 918M270 558V918M304 558L322 918M328 558L363 918M352 558L404 918M376 558L445 918M400 558L486 918" stroke="#5c4427" stroke-opacity=".55" stroke-width="1.2"/>
    <path d="M108 606H432M94 652H446M80 698H460M66 744H474M52 790H488M38 836H502M26 882H514" stroke="#fdf5ca" stroke-opacity=".62" stroke-width="1"/>
  </g>
  <g fill="none" stroke="#a7191e" stroke-linecap="round" stroke-linejoin="round">
    <path d="M64 714H476" stroke-width="4.2"/>
    <path d="M270 714V918" stroke-width="4.2"/>
    <path d="M102 714L52 918M438 714L488 918M52 918H270M270 918H488" stroke-width="4.2"/>
  </g>
  <path d="M8 712V952H532V712" fill="#dff7f8" fill-opacity=".18" stroke="#5f898a" stroke-opacity=".65" stroke-width="3"/>
  <path d="M270 918V952M36 738V938M504 738V938M24 930H516" fill="none" stroke="#eaffff" stroke-opacity=".5" stroke-width="1.6"/>
  <g fill="#51706c" opacity=".1">
    <ellipse cx="238" cy="310" rx="22" ry="7" transform="rotate(-10 238 310)"/>
    <ellipse cx="298" cy="356" rx="17" ry="5" transform="rotate(-10 298 356)"/>
  </g>
</svg>
